<?xml version="1.0" encoding="UTF-8"?>
<svg width="40px" height="47px" viewBox="0 0 40 47" version="1.1" xmlns="http://www.w3.org/2000/svg" xmlns:xlink="http://www.w3.org/1999/xlink">
    <!-- Generator: Sketch 50.2 (55047) - http://www.bohemiancoding.com/sketch -->
    <title>baseline-bookmark-24px</title>
    <desc>Created with Sketch.</desc>
    <defs></defs>
    <g id="Screens" stroke="none" stroke-width="1" fill="none" fill-rule="evenodd">
        <g id="Membership-Listings---Laptop" transform="translate(-822.000000, -2414.000000)">
            <g id="Group-24" transform="translate(493.000000, 2153.000000)">
                <g id="baseline-bookmark-24px" transform="translate(329.000000, 261.000000)">
                    <path d="M34.0350877,0 L5.96491228,0 C2.87719298,0 0.378947368,2.35102041 0.378947368,5.2244898 L0.350877193,47.0204082 L20,39.1836735 L39.6491228,47.0204082 L39.6491228,5.2244898 C39.6491228,2.35102041 37.122807,0 34.0350877,0 Z" id="Shape" fill="#43FFA8" fill-rule="nonzero"></path>
                    <polygon id="Shape" points="0.229235197 0.18223852 39.7250206 0.18223852 39.7250206 47.3203125 0.229235197 47.3203125"></polygon>
                    <g id="baseline-event-24px" transform="translate(7.368421, 7.836735)">
                        <path d="M17.8947368,11.755102 L12.6315789,11.755102 L12.6315789,16.6530612 L17.8947368,16.6530612 L17.8947368,11.755102 Z M16.8421053,0.979591837 L16.8421053,2.93877551 L8.42105263,2.93877551 L8.42105263,0.979591837 L6.31578947,0.979591837 L6.31578947,2.93877551 L5.26315789,2.93877551 C4.09473684,2.93877551 3.16842105,3.82040816 3.16842105,4.89795918 L3.15789474,18.6122449 C3.15789474,19.6897959 4.09473684,20.5714286 5.26315789,20.5714286 L20,20.5714286 C21.1578947,20.5714286 22.1052632,19.6897959 22.1052632,18.6122449 L22.1052632,4.89795918 C22.1052632,3.82040816 21.1578947,2.93877551 20,2.93877551 L18.9473684,2.93877551 L18.9473684,0.979591837 L16.8421053,0.979591837 Z M20,18.6122449 L5.26315789,18.6122449 L5.26315789,7.83673469 L20,7.83673469 L20,18.6122449 Z" id="Shape" fill="#261C02" fill-rule="nonzero"></path>
                        <polygon id="Shape" points="0 0 25.2631579 0 25.2631579 23.5102041 0 23.5102041"></polygon>
                    </g>
                </g>
            </g>
        </g>
    </g>
</svg>