<svg xmlns="http://www.w3.org/2000/svg" xmlns:xlink="http://www.w3.org/1999/xlink" width="101.192" height="68.607"><defs><clipPath id="A"><path d="M4415.215,109.282h-80.758l-20.434-68.607h80.757Z" transform="translate(-4314.023 -40.675)" fill="none" stroke="#171717" stroke-width="1"/></clipPath><path id="B" d="M-11.014 52.14c9.05 0 9.05 7.116 18.1 7.116s9.05-7.116 18.1-7.116 9.05 7.116 18.1 7.116 9.052-7.116 18.1-7.116 9.05 7.116 18.1 7.116 9.05-7.116 18.1-7.116 9.05 7.116 18.1 7.116"/></defs><g clip-path="url(#A)" fill="none" stroke="#171717" stroke-miterlimit="10" stroke-width="2.25"><use xlink:href="#B"/><path d="M-11.014 29.816c9.05 0 9.05 7.116 18.1 7.116s9.05-7.116 18.1-7.116 9.05 7.116 18.1 7.116 9.052-7.116 18.1-7.116 9.05 7.116 18.1 7.116 9.05-7.116 18.1-7.116 9.05 7.116 18.1 7.116m-125.7-29.44c9.05 0 9.05 7.116 18.1 7.116s9.05-7.116 18.1-7.116 9.05 7.116 18.1 7.116 9.052-7.116 18.1-7.116 9.05 7.116 18.1 7.116 9.05-7.116 18.1-7.116 9.05 7.116 18.1 7.116"/></g></svg>