<svg xmlns="http://www.w3.org/2000/svg" width="40" height="40" viewBox="0 0 40 40"><path d="M48.723,139.079H40.559a4.768,4.768,0,0,0-4.762,4.762v8.164a4.768,4.768,0,0,0,4.762,4.762h8.163a4.768,4.768,0,0,0,4.762-4.762v-8.164A4.768,4.768,0,0,0,48.723,139.079Zm-4.082,14.286a5.442,5.442,0,1,1,5.443-5.442A5.442,5.442,0,0,1,44.641,153.365Zm5.85-10.567a.725.725,0,1,1,.725-.725A.725.725,0,0,1,50.491,142.8Z" transform="translate(-24.641 -127.923)" fill="#fff"/><path d="M45.125,145.006a3.4,3.4,0,1,0,3.4,3.4A3.405,3.405,0,0,0,45.125,145.006Z" transform="translate(-25.126 -128.408)" fill="#fff"/><path d="M43.1,126.386a20,20,0,1,0,20,20A20,20,0,0,0,43.1,126.386Zm10.62,23.983a6.638,6.638,0,0,1-6.638,6.637H39.121a6.637,6.637,0,0,1-6.637-6.637V142.4a6.637,6.637,0,0,1,6.637-6.637h7.964a6.638,6.638,0,0,1,6.638,6.637Z" transform="translate(-23.104 -126.386)" fill="#fff"/></svg>