<svg xmlns="http://www.w3.org/2000/svg" width="39.718" height="39.718" viewBox="0 0 39.718 39.718"><path d="M155.126,74.335A19.859,19.859,0,1,0,174.982,94.2,19.862,19.862,0,0,0,155.126,74.335Zm-4.985,28.7h-3.662V91.005h3.662ZM148.095,89.96h-.026a2.178,2.178,0,0,1-2.244-2.2,2.147,2.147,0,0,1,2.3-2.134,2.169,2.169,0,1,1-.027,4.332Zm17.215,13.077H160.6V96.943c0-1.617-.539-2.715-2.009-2.715a2.191,2.191,0,0,0-2.061,1.459,2.642,2.642,0,0,0-.115.973v6.376h-4.048s.052-10.985,0-12.031h4.048v2.056a4.561,4.561,0,0,1,3.934-1.982c2.673,0,4.959,1.711,4.959,5.4Z" transform="translate(-135.264 -74.335)" fill="#fff"/></svg>